<?xml version="1.0" encoding="UTF-8" standalone="no"?>
<!-- Created with Inkscape (http://www.inkscape.org/) -->

<svg
   xmlns:dc="http://purl.org/dc/elements/1.1/"
   xmlns:cc="http://creativecommons.org/ns#"
   xmlns:rdf="http://www.w3.org/1999/02/22-rdf-syntax-ns#"
   xmlns:svg="http://www.w3.org/2000/svg"
   xmlns="http://www.w3.org/2000/svg"
   xmlns:sodipodi="http://sodipodi.sourceforge.net/DTD/sodipodi-0.dtd"
   xmlns:inkscape="http://www.inkscape.org/namespaces/inkscape"
   width="45.035591mm"
   height="8.8907776mm"
   viewBox="0 0 45.035591 8.8907776"
   version="1.1"
   id="svg8"
   inkscape:version="0.92.3 (2405546, 2018-03-11)"
   sodipodi:docname="facebook-logo.svg">
  <defs
     id="defs2" />
  <sodipodi:namedview
     id="base"
     pagecolor="#ffffff"
     bordercolor="#666666"
     borderopacity="1.0"
     inkscape:pageopacity="0.0"
     inkscape:pageshadow="2"
     inkscape:zoom="2.8"
     inkscape:cx="84.457574"
     inkscape:cy="14.369179"
     inkscape:document-units="mm"
     inkscape:current-layer="layer1"
     showgrid="false"
     fit-margin-top="0"
     fit-margin-left="0"
     fit-margin-right="0"
     fit-margin-bottom="0"
     inkscape:window-width="1366"
     inkscape:window-height="710"
     inkscape:window-x="0"
     inkscape:window-y="28"
     inkscape:window-maximized="1" />
  <metadata
     id="metadata5">
    <rdf:RDF>
      <cc:Work
         rdf:about="">
        <dc:format>image/svg+xml</dc:format>
        <dc:type
           rdf:resource="http://purl.org/dc/dcmitype/StillImage" />
        <dc:title></dc:title>
      </cc:Work>
    </rdf:RDF>
  </metadata>
  <g
     inkscape:label="Camada 1"
     inkscape:groupmode="layer"
     id="layer1"
     transform="translate(57.24564,-155.20602)">
    <path
       style="fill:#ffffff;stroke-width:0.07243642"
       d="m -51.953916,164.015 c -0.385552,-0.12224 -0.760875,-0.43087 -0.955135,-0.78541 -0.13186,-0.24064 -0.164359,-0.4181 -0.16566,-0.90449 -0.002,-0.70322 0.149933,-1.07218 0.54891,-1.33407 0.369874,-0.24278 0.695358,-0.30237 1.660622,-0.30399 0.486452,-8.1e-4 0.930617,-0.0298 0.987033,-0.0642 0.07392,-0.0452 0.09166,-0.15633 0.06348,-0.39779 -0.06388,-0.54741 -0.109865,-0.56603 -1.465683,-0.59372 l -1.184086,-0.0242 0.04943,-0.65213 c 0.07779,-1.02645 -0.08957,-0.92834 1.502895,-0.88098 1.574292,0.0468 2.002367,0.13815 2.44095,0.52086 0.50483,0.44052 0.536924,0.61849 0.573196,3.17849 l 0.03202,2.26028 h -0.817848 c -0.743927,0 -0.817846,-0.0118 -0.817846,-0.13051 0,-0.2119 -0.05379,-0.21482 -0.573515,-0.0311 -0.584684,0.20665 -1.466332,0.27375 -1.878762,0.14298 z m 2.019594,-1.41008 c 0.103078,-0.0533 0.137864,-0.15146 0.137864,-0.38911 v -0.31785 h -0.584376 c -0.432978,0 -0.614382,0.029 -0.700195,0.11187 -0.123889,0.11966 -0.152434,0.43407 -0.05313,0.58525 0.140715,0.21423 0.794071,0.21959 1.199841,0.01 z m 4.408264,1.36978 c -0.709541,-0.17892 -1.152817,-0.51452 -1.469616,-1.11262 l -0.257967,-0.48704 v -1.32568 -1.32568 l 0.246178,-0.483 c 0.284297,-0.55778 0.686552,-0.88648 1.338477,-1.09371 0.500454,-0.15908 1.860302,-0.17573 2.598097,-0.0318 l 0.497509,0.097 v 0.74764 0.74763 l -0.423802,-0.0616 c -0.233093,-0.0339 -0.783271,-0.0616 -1.22262,-0.0616 -0.783907,0 -0.80213,0.003 -0.976591,0.19973 -0.170826,0.19195 -0.177774,0.24153 -0.177774,1.26911 v 1.06935 l 0.225237,0.21755 0.225238,0.21755 0.898763,-0.0453 c 0.494319,-0.0249 1.023139,-0.0647 1.175155,-0.0884 l 0.276394,-0.0431 v 0.74962 0.74963 l -0.202688,0.0399 c -1.095979,0.21565 -2.037837,0.23444 -2.74999,0.0548 z m 5.313021,0.0204 c -1.427875,-0.38599 -1.930011,-1.34293 -1.816882,-3.46251 0.05679,-1.06393 0.210869,-1.48752 0.702764,-1.93192 0.605687,-0.54723 1.784471,-0.75723 2.902212,-0.51703 1.309673,0.28143 1.766667,0.95965 1.778693,2.63972 l 0.0061,0.85428 -1.713642,0.0191 c -1.763279,0.0197 -1.749047,0.0171 -1.720296,0.30124 0.06049,0.59775 0.255858,0.67159 1.624529,0.61407 0.589797,-0.0248 1.196736,-0.0645 1.348751,-0.0882 l 0.276394,-0.0431 v 0.74767 0.74767 l -0.460656,0.0857 c -0.761203,0.14163 -2.455901,0.1609 -2.927983,0.0333 z m 1.635648,-3.98363 c -0.02987,-0.40649 -0.279483,-0.60512 -0.760435,-0.60512 -0.292194,0 -0.404941,0.0359 -0.548676,0.17474 -0.09951,0.0961 -0.18506,0.24027 -0.190127,0.32035 -0.0051,0.0801 -0.01552,0.18566 -0.02321,0.23461 -0.02835,0.18025 0.05953,0.20021 0.793799,0.1804 l 0.749573,-0.0202 z m 3.964137,4.05119 c -0.101348,-0.0173 -0.457891,-0.0662 -0.792326,-0.10875 l -0.608065,-0.0773 v -4.12165 c 0,-2.26691 0.0083,-4.12175 0.01841,-4.12186 0.01015,-1.1e-4 0.416435,-0.0641 0.902887,-0.14217 0.486451,-0.0781 0.909334,-0.14207 0.939737,-0.14218 0.0304,-1.1e-4 0.05528,0.63505 0.05528,1.41147 v 1.41167 l 0.497508,-0.10121 c 1.084809,-0.2207 2.359922,0.0254 2.723522,0.52567 0.310472,0.42715 0.353355,0.70246 0.35351,2.26941 1.48e-4,1.7593 -0.07032,2.06513 -0.592235,2.56923 -0.466408,0.45049 -1.045891,0.60979 -2.318961,0.63748 -0.547259,0.0119 -1.077934,0.008 -1.179278,-0.01 z m 1.885584,-1.64115 c 0.261626,-0.16557 0.339942,-0.56813 0.312787,-1.60778 -0.024,-0.919 -0.02471,-0.92224 -0.240058,-1.10099 -0.18924,-0.15707 -0.266801,-0.17516 -0.626491,-0.14612 -0.225781,0.0182 -0.501721,0.0689 -0.613198,0.11265 l -0.202691,0.0796 v 1.38474 c 0,1.25741 0.01187,1.3881 0.128984,1.42131 0.233676,0.0662 1.060428,-0.0292 1.240667,-0.14332 z m 4.821561,1.63418 c -0.401346,-0.0649 -0.935085,-0.26455 -1.196327,-0.44751 -0.711769,-0.49851 -0.86741,-0.9563 -0.86741,-2.55137 0,-1.31245 0.0696,-1.6808 0.406298,-2.15007 0.38788,-0.54061 1.086835,-0.84076 2.099668,-0.90166 1.073726,-0.0645 1.968506,0.21497 2.458716,0.76812 0.446841,0.50423 0.526333,0.84713 0.526333,2.27052 0,1.0053 -0.02501,1.31497 -0.129563,1.60402 -0.260856,0.7212 -0.831553,1.1687 -1.723116,1.35114 -0.478408,0.0979 -1.166846,0.12275 -1.574599,0.0568 z m 1.304152,-1.68862 c 0.206499,-0.1714 0.206832,-0.17313 0.230553,-1.20381 0.03233,-1.40509 -0.08683,-1.61453 -0.918682,-1.61453 -0.269274,0 -0.373532,0.0396 -0.547988,0.20809 l -0.215445,0.2081 0.0024,1.09112 c 0.0016,0.74584 0.03076,1.12654 0.09213,1.20308 0.157833,0.19679 0.374736,0.2752 0.767447,0.27742 0.300328,0.002 0.427411,-0.0349 0.589639,-0.16947 z m 4.383221,1.59317 c -0.853459,-0.21592 -1.381173,-0.67139 -1.59909,-1.38015 -0.148875,-0.48422 -0.150742,-2.5875 -0.0027,-3.06256 0.208572,-0.66939 0.651752,-1.09742 1.41156,-1.36332 0.271643,-0.0951 0.583933,-0.1269 1.246872,-0.12713 1.107523,-2.6e-4 1.588646,0.15179 2.109854,0.66729 0.532177,0.52634 0.617229,0.85007 0.617229,2.34935 0,1.39376 -0.07745,1.74935 -0.485087,2.22701 -0.620148,0.72667 -2.006421,1.01644 -3.298619,0.68951 z m 1.66058,-1.59317 c 0.206022,-0.171 0.206889,-0.17544 0.230932,-1.18218 0.02688,-1.12551 -0.03018,-1.36673 -0.362527,-1.53273 -0.11389,-0.0569 -0.360524,-0.10343 -0.548075,-0.10343 -0.278623,0 -0.380412,0.038 -0.556447,0.20809 l -0.215445,0.2081 0.0024,1.09112 c 0.0016,0.74584 0.03075,1.12654 0.09213,1.20308 0.157833,0.19679 0.374737,0.2752 0.767449,0.27742 0.300326,0.002 0.427411,-0.0349 0.589638,-0.16947 z M -56.28249,161.8268 v -2.20687 h -0.481576 -0.481574 l 0.02092,-0.7653 0.02092,-0.76529 0.450236,-0.021 0.450238,-0.021 0.03859,-0.72656 c 0.06563,-1.23595 0.314544,-1.70013 1.055188,-1.96779 0.331027,-0.11963 0.577595,-0.14697 1.325243,-0.14697 h 0.918544 v 0.63489 c 0,0.34918 0.01844,0.68134 0.04101,0.73811 0.03316,0.0835 -0.07494,0.10971 -0.564918,0.1371 -0.779395,0.0436 -0.876485,0.13741 -0.876485,0.84705 v 0.49044 h 0.70969 0.709692 l -0.05349,0.7297 c -0.02942,0.40133 -0.06882,0.75372 -0.08755,0.78308 -0.01875,0.0293 -0.314026,0.0534 -0.656205,0.0534 h -0.62214 v 2.20688 2.20689 h -0.958163 -0.958166 z m 38.400247,-1.99331 c 0,-2.3101 0.02488,-4.20041 0.05528,-4.20067 0.0304,-2.5e-4 0.436702,-0.0641 0.902885,-0.14191 0.466183,-0.0778 0.872481,-0.14164 0.902884,-0.14191 0.0304,-2.5e-4 0.05528,1.19153 0.05528,2.64842 v 2.64888 l 0.809648,-1.23826 c 0.445307,-0.68104 0.837653,-1.26531 0.87188,-1.29836 0.03423,-0.0331 0.514955,-0.0512 1.068284,-0.0402 l 1.006055,0.0199 -0.919771,1.40514 c -0.505873,0.77282 -0.919769,1.44075 -0.919769,1.48428 0,0.0436 0.398007,0.71872 0.884458,1.50041 0.486452,0.78171 0.884459,1.45216 0.884459,1.4899 0,0.0417 -0.396748,0.0609 -1.009996,0.0489 l -1.010001,-0.0198 -0.814197,-1.31291 -0.814198,-1.3129 -0.02005,1.3307 -0.02004,1.3307 h -0.956538 -0.956536 z"
       id="path845"
       inkscape:connector-curvature="0" />
  </g>
</svg>
